<?xml version="1.0" encoding="UTF-8"?>
<svg id="Capa_2" data-name="Capa 2" xmlns="http://www.w3.org/2000/svg" viewBox="0 0 370.47 464.88">
  <defs>
    <style>
      .cls-1 {
        fill: #3c411a;
      }

      .cls-2 {
        fill: #a13517;
      }

      .cls-3 {
        fill: #eca31c;
      }
    </style>
  </defs>
  <g id="Capa_1-2" data-name="Capa 1">
    <g>
      <path class="cls-3" d="M35.24,169.17c9.46,3.09,19.38,11.03,28.74,14.92,10.56,4.38,33.43,4.74,43.98.36,3.31-1.37,15.35-7.94,18.47-10.27,2.21-1.65,7.32-8.64,10.29-9.04s11.72,2.81,14.96,4c3.94,1.44,7.31,3.14,10.47,5.01.56,3.2-1.62,1.73-3.49,1.96-9.09,1.1-18.76,3.6-13.47,15.3,2.97,6.56,26.2,2.67,32.95,3.72,5.06,11.98,10.16,27.73,11.86,40.58.8,6.02,1.21,12.26,1.13,18.35-11.62,1.77-31.65,12.62-42.68,17.97-13.2,6.41-25.97,12.31-38.02,20-9.63,6.14-16.62,11.99-24.22,20.66-3.33,9.43,5.39,13.98,13.97,10.76,5.24-1.96,15.96-10.88,20.67-14.3,19.98-14.51,36.37-31.22,62.75-33.16,9.01-.66,28.25-.22,36.26,3.75,5.7,2.83,16.44,12.62,19.42,18.58,2.29,4.58,2.65,9.32,3.88,13.92.22.84,1.73.71,1.91,1.44.33,1.39.32,6.19,0,7.59-.16.7-1.64.68-1.88,1.48-4.04,13.42-6.93,16.56-17.59,25.22-13.24,10.76-32.7,21.77-49.23,26.66-6.81,2.01-10.85,1.93-16.92,5.27-2.86,1.58-6.17.32-4.9,6.07.08.36,4.26,5.28,4.58,5.44,2.76,1.37,7.85.06,11.02.49-19.63,6.49-37.43,24.98-53.3,36.62-1.59,1.17-9.76,6.12-11.24,6.31-3.02.39-10.59-2.15-11.88-5-4.45-9.81,10.21-9.08,13.5-14.69,2.97-5.07-.74-10.18-6.49-10.3-5.16-.1-13.65,5.24-16.94,9.1-7.05,8.26-5.21,20.06,1.42,27.89-26.96-16.53-40.31-40.89-45.85-71.52-.74-4.07-1.61-6.06-2.09-8.06-2.75-11.46.53-49.42,2.11-61.61,3.38-26.08,9.91-42.46,16.94-66.77.23-.79,1.71-.77,1.88-1.48,1.97-8.39-2.6-24.6-6.07-32.65-2.16-5.01-5.77-8.91-8.43-13.55-3.16-5.53-6.39-11.23-8.46-17.02Z"/>
      <path class="cls-3" d="M172.15,159.18c.38-2.42.74-5.55,1.71-7.75,19.21-43.46,36.34-92.55,69.22-128.32,17.91-19.48,50.3-33.35,73.01-13.31,17.19,15.16,15.83,37.98,10.46,58.51-4.82,18.42-16.85,40.74-24.4,58.72-6.09,14.5-11.24,29.65-17.81,43.88-.59,1.28-4.5,3.19-2.13,7.11.56.92,17.25,2.79,21.04,4.23,7.86,2.99,18.78,11.22,23.58,18.58,8.32,12.78,10.25,27.5,9.18,42.73-.65,9.37-5.16,15.33-5.86,23.1-.25,2.78-.56,6.84.31,9.44.27.81,5.38,6.25,6.19,6.8,2.61,1.78,6.19,1.47,8.9,3.09,1.85,1.11,10.66,11.19,12.45,13.53,9.54,12.49,14.21,29.02,11.87,44.79-2.84,19.19-14.62,32.23-29.73,43.19-2.39,1.74-3.06,5.51-8.1,4.39,2.88-8.1,7.21-10.9,10.98-17.7,4.48-8.07-1.01-13.55-9.42-12.21-5.29.85-6.51,5.64-9.62,8.36-1.22,1.07-3.14,1.38-4.43,2.56-16.11,14.66-24.61,30.1-50.01,21.03-14.65-5.23-21.87-25.32-16.61-39.63,11.08-24.98,26.19-49.43,49.85-65.03,5.94-3.92,17.37-6.12,17.96-13.87.69-9.05-8.4-9.01-15.07-8.25-10.96,1.24-26.69,14.03-34.12,21.83-1.3,1.37-6.67,10.62-8.45,9.03-.32-3.03-1.34-6.18-2.52-8.97-2.82-6.68-7.73-15.04-13.13-19.84-4.66-4.14-13.49-7.12-18.23-11.77-2.67-4.14,1.43-9.32,3.9-12.56,9.34-12.23,20.79-19.3,30.3-33.42,2.23-3.31,5.55-2.08,4.74-9.85-.84-8.07-9.71-6.49-15.04-3.94-3.5,1.67-16.67,11.94-19.65,14.82-6.22,5.98-16.75,19.84-21.14,27.29-2.32,3.94-3.62,12.06-8.19,13.31.16-7.39-.23-14.89-1.27-22.2-1.63-11.53-5.46-24.64-9.72-34.73,6.7.91,11.73-2.76,9.23-9.69-2.79-7.73-12.82-6.79-19.22-9.29-.98-1.62-3.02-3.98-2.43-6.01l12.98-17.89c.64-.6,4.44-2.69,5.13-2.79.73-.1,13.34,2.4,14.58,2.77.9.27.33,1.79,2.15,2.03,3.8.5,16.31.49,20.12,0,1.78-.23,1.31-1.8,2.18-2.01,17.04-4.13,26.69-8.62,38.21-22.55,7.44-9,10.24-15.81,19.25-24.44,15.34-14.7-4.63-17.28-16.86-18.86-34.71-4.5-62.58,4.76-80.5,35.14-2.46,4.17-5.88,15.65-7.11,17.37-1.39,1.95-7.36,5.99-9.22,8.26-3.46,4.21-3.76,8.73-9.47,11.01Z"/>
      <path class="cls-3" d="M25.25,152.19c-1.31-5.11-3.5-9.96-5.72-14.72C13.38,124.27,2.22,102,.52,87.51-4.34,46.01,25.27,12.98,65.85,9.49c22.81-1.96,31.03,7.55,41.26,25.63,21.19,37.46,32.62,78.98,49.95,117.87.62,1.4.41,3.64,1.09,5.19-3.11-1-6.17-1.78-9.19-3.09-21-9.12-30.78-25.95-57.23-27.91-24.67-1.82-42.91,6.94-61.01,21.99-1.48,1.23-3.99,1.6-5.48,3.02Z"/>
      <path class="cls-2" d="M204.13,253.06c4.57-1.25,5.87-9.38,8.19-13.31,4.39-7.45,14.92-21.31,21.14-27.29,2.99-2.87,16.16-13.14,19.65-14.82,5.33-2.55,14.19-4.12,15.04,3.94.81,7.77-2.5,6.54-4.74,9.85-9.51,14.12-20.96,21.19-30.3,33.42-2.47,3.24-6.57,8.42-3.9,12.56,4.74,4.64,13.57,7.63,18.23,11.77,5.4,4.8,10.31,13.16,13.13,19.84,1.18,2.79,2.2,5.94,2.52,8.97,1.78,1.59,7.14-7.66,8.45-9.03,7.43-7.8,23.16-20.58,34.12-21.83,6.67-.76,15.76-.8,15.07,8.25-.59,7.75-12.02,9.95-17.96,13.87-23.65,15.6-38.77,40.05-49.85,65.03-5.27,14.31,1.96,34.4,16.61,39.63,25.4,9.07,33.89-6.36,50.01-21.03,1.3-1.18,3.21-1.49,4.43-2.56,3.11-2.73,4.33-7.52,9.62-8.36,8.41-1.35,13.9,4.14,9.42,12.21-3.77,6.8-8.1,9.6-10.98,17.7-.46,1.29-18.13,16.68-19.99,17.98-2.38,1.66-16.19,8.64-17.69,8.96-7.24,1.56-15,.18-22.28.03-7.62-6.49-20.02-7.36-28.67-17.29-2.44-2.81-5.64-10.96-6.31-14.67-1.3-7.2.43-13.69,0-20.98-4.72-1.41-5.85,2.9-7.73,4.02-2.38,1.41-7.49,3.73-10.25,4.97-15.73,7.1-32.76,11.62-48.97,16.98-3.17-.43-8.25.88-11.02-.49-.32-.16-4.5-5.07-4.58-5.44-1.28-5.74,2.04-4.49,4.9-6.07,6.06-3.35,10.11-3.26,16.92-5.27,16.53-4.89,35.99-15.9,49.23-26.66,10.66-8.66,13.55-11.8,17.59-25.22.24-.8,1.72-.77,1.88-1.48.32-1.41.33-6.2,0-7.59-.17-.72-1.68-.6-1.91-1.44-1.23-4.6-1.59-9.33-3.88-13.92-2.98-5.96-13.73-15.75-19.42-18.58-8-3.97-27.25-4.42-36.26-3.75-26.38,1.94-42.77,18.66-62.75,33.16-4.71,3.42-15.43,12.34-20.67,14.3-8.58,3.21-17.3-1.33-13.97-10.76,7.6-8.68,14.59-14.52,24.22-20.66,12.05-7.68,24.82-13.59,38.02-20,11.03-5.36,31.05-16.2,42.68-17.97.11-.02.75,1.04,2.14.76,3.56-.72,7.4-.81,10.85-1.76Z"/>
      <path class="cls-1" d="M172.15,159.18c5.71-2.28,6.01-6.8,9.47-11.01,1.86-2.26,7.84-6.31,9.22-8.26,1.23-1.73,4.65-13.21,7.11-17.37,17.92-30.38,45.79-39.64,80.5-35.14,12.23,1.59,32.2,4.17,16.86,18.86-9.01,8.63-11.81,15.45-19.25,24.44-11.52,13.93-21.17,18.42-38.21,22.55-.87.21-.4,1.78-2.18,2.01-3.81.5-16.32.5-20.12,0-1.82-.24-1.25-1.76-2.15-2.03-1.24-.37-13.84-2.87-14.58-2.77-.68.1-4.49,2.19-5.13,2.79l-12.98,17.89c-.59,2.03,1.45,4.39,2.43,6.01,3.41,5.63,7.32,12.66,9.99,18.98,4.26,10.08,8.09,23.2,9.72,34.73,1.04,7.31,1.43,14.81,1.27,22.2-3.45.95-7.29,1.04-10.85,1.76-1.39.28-2.03-.78-2.14-.76.08-6.08-.33-12.33-1.13-18.35-1.71-12.85-6.8-28.59-11.86-40.58-1.67-3.96-2.82-4.66-4.31-7.24-1.86-3.22-4.06-8.92-6.66-11.26-1.77-1.59-3.38-1.51-5.02-2.48-3.17-1.88-6.54-3.57-10.47-5.01-3.24-1.19-12.02-4.4-14.96-4s-8.08,7.39-10.29,9.04c-3.12,2.33-15.16,8.89-18.47,10.27-10.55,4.38-33.42,4.02-43.98-.36-9.37-3.89-19.29-11.83-28.74-14.92-6.3-2.06-15.53-1.56-14-10.44.08-.5,3.67-6.22,4.01-6.54,1.49-1.41,3.99-1.78,5.48-3.02,18.1-15.05,36.34-23.81,61.01-21.99,26.44,1.95,36.23,18.79,57.23,27.91,3.02,1.31,6.08,2.1,9.19,3.09,1.02.33,1.41,1.68,4.46,2.02,3.21.36,6.48.2,9.54-1.02Z"/>
      <path class="cls-1" d="M219.12,374.91l17.99,11.99c.67,3.72,3.87,11.87,6.31,14.67,8.65,9.93,21.05,10.8,28.67,17.29,4.7,4,5.76,7.38,8.99,11.53,1.78,2.28,5.94,4.46,7,8.45-4.76,3.5-7.25,4.3-11.99,6.99-3.97-4.78-6.98-10.46-11-15.19-8.88-10.4-24.99-25.12-35.74-32.77-4.08-2.91-8.72-4.92-12.73-7.96,2.28,10.86,3.18,22.56,6.6,33.15.26.8,1.6.92,1.83,1.56,2.26,6.49,4.52,20.59,12.7,21.16,8.82.61,1.57-10.29,10.09-12.75,10.89-3.14,10.97,10.92,7.58,17.52-1.13,2.2-6.88,4.99-7.31,8.25-3.41,1.11-5.82,1.27-8.99,2-6.11-.11-13.5-4.47-17.43-9.05-.56-.65-7.19-12.01-7.48-12.71-1.89-4.52-2.45-11.52-4.57-16.19-3.9,2.62-6.59,7.23-10.03,9.95-9.44,7.47-16.27,6.7-26.25,10.72-7.09,2.85-12.96,10.45-13.19,18.27-4.49-.61-8.99-2.24-12.99-3,1.54-13.13,9.62-23.08,21.74-27.71,5.87-2.24,12.35-3.51,17.92-6.06,9.69-4.45,22.31-20.69,14.78-31.15-2.71,1.89-5.89,2.63-8.75,4.02-7.34,3.55-13.12,4.71-20.39,7.78-22.52,9.52-39.83,30.65-61.54,41.17-.6.29-.62,1.77-1.43,1.95-2.66.58-6.43-.34-9.3.02-4.73-1.76-10.07-3.97-14.99-6.99-6.63-7.83-8.47-19.63-1.42-27.89,3.29-3.86,11.78-9.2,16.94-9.1,5.75.12,9.47,5.23,6.49,10.3-3.29,5.61-17.95,4.88-13.5,14.69,1.29,2.85,8.86,5.39,11.88,5,1.48-.19,9.65-5.14,11.24-6.31,15.86-11.64,33.67-30.13,53.3-36.62,16.2-5.36,33.24-9.88,48.97-16.98Z"/>
      <path class="cls-3" d="M100.2,448.82c2.87-.36,6.64.56,9.3-.02.81-.18.83-1.66,1.43-1.95,21.72-10.52,39.02-31.65,61.54-41.17,7.27-3.07,13.05-4.23,20.39-7.78,2.86-1.39,6.04-2.13,8.75-4.02,7.53,10.46-5.09,26.7-14.78,31.15-5.57,2.56-12.05,3.82-17.92,6.06-12.12,4.63-20.2,14.58-21.74,27.71-11.08-2.09-24.14-3.72-36.18-6.29-4.03-.86-7.33-2.42-10.79-3.7Z"/>
      <path class="cls-3" d="M160.16,461.81c.23-7.83,6.11-15.42,13.19-18.27,9.98-4.01,16.81-3.25,26.25-10.72,3.44-2.72,6.13-7.33,10.03-9.95,2.12,4.67,2.68,11.67,4.57,16.19.29.7,6.92,12.06,7.48,12.71,3.93,4.57,11.32,8.94,17.43,9.05-26,5.92-52.5,4.6-78.95,1Z"/>
      <path class="cls-3" d="M248.1,458.81c.43-3.27,6.18-6.05,7.31-8.25,3.39-6.6,3.31-20.65-7.58-17.52-8.52,2.45-1.27,13.35-10.09,12.75-8.19-.56-10.44-14.67-12.7-21.16-.22-.64-1.57-.76-1.83-1.56-3.42-10.59-4.31-22.29-6.6-33.15,4.01,3.04,8.65,5.05,12.73,7.96,10.74,7.65,26.86,22.37,35.74,32.77,4.03,4.72,7.04,10.4,11,15.19-9.32,5.28-18.19,9.8-27.98,12.98Z"/>
      <path class="cls-3" d="M312.05,409.87c-4.5,11.79-13.97,21.6-23.98,28.96-1.06-3.99-5.22-6.17-7-8.45-3.23-4.14-4.3-7.53-8.99-11.53,7.28.15,15.05,1.53,22.28-.03,1.5-.32,15.31-7.3,17.69-8.96Z"/>
      <path class="cls-2" d="M162.16,174.16c1.64.97,3.25.89,5.02,2.48,2.6,2.34,4.8,8.04,6.66,11.26,1.49,2.58,2.64,3.28,4.31,7.24-6.75-1.05-29.98,2.84-32.95-3.72-5.29-11.7,4.38-14.2,13.47-15.3,1.88-.23,4.05,1.25,3.49-1.96Z"/>
      <path class="cls-2" d="M183.14,177.16c6.4,2.49,16.43,1.55,19.22,9.29,2.5,6.93-2.53,10.6-9.23,9.69-2.67-6.32-6.59-13.35-9.99-18.98Z"/>
      <path class="cls-3" d="M219.12,374.91c2.76-1.24,7.87-3.56,10.25-4.97,1.89-1.12,3.01-5.43,7.73-4.02.44,7.29-1.3,13.78,0,20.98l-17.99-11.99Z"/>
    </g>
  </g>
</svg>