<?xml version="1.0" encoding="UTF-8"?>
<svg id="Capa_1" data-name="Capa 1" xmlns="http://www.w3.org/2000/svg" viewBox="0 0 1920 1080">
  <defs>
    <style>
      .cls-1 {
        fill: #394204;
      }

      .cls-2 {
        fill: #384002;
      }

      .cls-3 {
        fill: #384103;
      }
    </style>
  </defs>
  <g>
    <path class="cls-2" d="M1882.66,667.88c8.68,9.83,22.41,26.37,29.02,37.43,2.37,3.96,3.24,8.06.45,12.12-2.19,3.19-32.1,6.55-37.88,7.54-15.19,2.6-26.87,6.26-42.91,5.51-32.89-1.54-76.75-18.45-107.33-31.49-12.97-5.53-27.87-16.96-34.76-29.46-10.17-18.45,12.52-28.08,26.28-32.95,27.06-9.57,55-9.94,83.43-7.13,37.22,3.68,58.52,9.92,83.69,38.42ZM1772.73,644.2c-.11-.16,1.51-3.84-1.21-2.55s1.11,2.37,1.21,2.55c.08.15-.67,1.18-.38,1.73.52.97,2.34.86,2.53,1.15.29.45-.87,9.15-1.58,10.6-1.36,2.77-4.52,3.89-6.23,6.71-5.88,9.67,2.55,20.21-.11,25.88-.19.4-7.41,8.51-2.24,6.19.33-.15,4.78-4.79,4.99-5.16.88-1.5,2.75-6.59,2.95-8.24.06-.47-2.47-6.49-2.64-9.05-.75-11.25,12.53-11.13,7.8-23.26-1.01-2.6-2.39-2.81-2.94-3.69-1.23-1.97-1.34-1.72-2.15-2.89ZM1764.97,647.1c-.95-1.82-3.22-4.45-5.14-5.37.86,3.45,4.19,8.79,3.16,12.26-1.86,6.27-10.34,3.21-9.45,16.13.25,3.68,3.14,8.54,2.93,11.97s-2.54,4.46-2.5,7.37c14.72-6.33,3.29-14.31,4.16-21.54.81-6.66,6.61-6.31,8.25-11.65.72-2.33-.3-7.03-1.42-9.17ZM1714.04,649.06c-11.04,6.95-7.97,27.29,6.96,25.36,14.31-1.86,15.76-27.02-1.01-26.8-.89.01-5.34,1.06-5.95,1.44Z"/>
    <path class="cls-2" d="M1983.98,669.84c2.31,2.28,2.37,13.99,2,17.4-2.35,21.91-22.57,87.15-40.33,99.42-10.91,7.54-13.07-13.42-16.2-20.97-4.45-10.73-11.64-23.48-18.26-32.95-1.77-2.53-9.1-7.84-5.57-10.55,3.43-2.64,16.34.62,12.88-10.77-1.33-4.37-8.94-10.8-7.7-14.38.6-1.73,31.11-9.64,34.71-11.85,7.31-4.24,15.34-7.35,22.38-11.26,4.71-2.62,10.61-9.48,16.08-4.08Z"/>
  </g>
  <path class="cls-1" d="M221.85,995.75c-1.62-4.95-.14-13.82-1.11-17.24-2.22-7.82-14.99.02-20.29.65-5.02.6-9.1.36-13.16-3.08-7.38-6.24-3.27-20.6-5.61-22.62-2.48-2.15-15.97,4.16-20.74,3.74-7.58-.67-12.66-6.46-13.89-13.51-1.13-6.48-2-24.28,8.21-21.65,9.53,2.45-3.18,24.87,10,22.55.97-.17,2.19-1.33,3.55-1.63,9.69-2.16,14.31-4.82,23.11,2.69,4.65,3.97.47,20.73,4.71,21.96,1.13.33,17.16-5.92,22.07-4.95,6.29,1.24,11.73,6.36,13.43,12.44.94,3.34.02,17.94,3.11,19.38,3.84,1.8,14.08-2.38,18.1-4.06s8.9-7.56,13.96-3.56c11.5,9.07-20.69,19.64-26.69,20.1-7.83.6-16.19-3.33-18.77-11.2Z"/>
  <path class="cls-1" d="M-24.94,665.59c.61.99.33,18.65,1.27,23.21,1.9,9.29,10.75,28.05,21.37,28.63,17.51.96,25.21-26.14,27.39-39.64.67-4.15-1.59-11.28,4.67-12.37s7.61,4.27,7.53,9.49c-.2,11.99-4.83,28.37-11.76,38.2-31.19,44.22-67.32-6.99-62.32-44.25.88-6.57,10.01-6.3,11.87-3.28Z"/>
  <path class="cls-1" d="M110.8,892.5c.16.05,2.18,2.25,2.22,2.41,1.63,7.82-6.36,9.92-5.01,15.6.43,1.79,11.77,1.5,9.67,8.65-2.5,8.52-14.05,2.36-14.6,2.98-.13,5.19,1.49,11.16-4.96,12.59-9.43,2.08-8.89-7.42-5.91-13.75.49-1.05,2.82-.92,1.93-4.22-.57-2.09-12.76-1.09-10.05-10.89.29-1.04,4.16-2.84,5.44-2.74,2.34.17,7.39,6.52,8.54.51.39-2.06.05-3.68.81-6.22,1.59-5.36,6.94-6.47,11.94-4.91Z"/>
  <path class="cls-1" d="M1680.05,711.06c11.46-1.69,23.63,7.92,26.89,18.64.94,3.08.1,10.14.52,10.81,1.76,2.75,2.93.68,4.85,1.37,15.91,5.7,21.11,16.89,18.56,32.92,26.12-2.79,36.38,32.27,14.17,45.96-18.99,11.71-44.69-7.92-36.12-28.6-13.7-.39-25.13-7.73-27.36-22.06-.34-2.16.51-7.2,0-7.84-.85-1.07-6.29-1.7-8.29-2.61-24.25-11.04-18.95-44.81,6.78-48.6Z"/>
  <path class="cls-1" d="M188.55,853.29c.53,1.26,5.16,5.18,6.45,9,4.36,13-6.57,28.34-15.53,37.1-3.8,3.72-17.04,15.5-20,5.35-1.64-5.63,6.65-9.03,10.01-12.34,7.01-6.89,15.74-17.5,13.78-27.88l-7.02,9.49c-11.79,13.07-44.88,20.26-41.67-5.74,2.48-20.06,24.81-29.48,42.7-22.73,3.26-14.57-15.48-14.15-24.26-8.98-3.24,1.91-12.14,15.6-16.18,5.97-2.36-5.62,2.7-10.59,6.97-13.96,12.45-9.83,37.29-11.33,44.49,5.47,3.94,9.19-1.86,14.28.26,19.25ZM172.28,856.55c-12.37-3.96-26.85,2.89-25.83,16.82,11.13,2.41,22.97-5.99,25.83-16.82Z"/>
  <g>
    <path class="cls-1" d="M125.44,646.01c4.42-2.32,9.11-4.33,14.41-4.43-8.49,17.72-18.42,35.05-26.31,53.05-10.39,23.71-20.71,53.07-27.35,78.19-2.15,8.14-2.97,17.78-5.16,26.09l4.78-8.44c17.31-47.89,32.65-99.1,55.87-144.58,1.22-2.38,4.86-6.4,7.21-7.65,3.12.06,4.91,11.58,5.38,14.59,8.06,51.05-28.69,135.99-53.26,181.08-9.03,16.57-19.4,32.39-32.88,45.72-5.63,5.57-15.46,16.48-19.42,3-.76-40.86-7-82.52,3.82-122.7,9.93-36.88,37.8-95.53,72.9-113.93Z"/>
    <path class="cls-1" d="M165.17,618.24c-5.18,5.35-9.85,11.18-14.81,16.74-.78.87.16,2.1-2.35.83,1.43-3.16-1.14-5.99-.36-9.03,1.85-7.24,10.45-12.66,17.53-8.53Z"/>
  </g>
  <g>
    <path class="cls-2" d="M1842.93,784.91c-10.35,30.53-18.42,61.86-32.67,91.01l-62.07,83.35c-6.23,3.45-12.8-17.16-13.5-21.58-2.24-14.24,2.63-28.11,2.18-42.28-.22-6.99-3.05-15.75-2.39-22.68,3.17-33.18,31.76-33.16,40.32-59.06,5.32-16.09,2.04-19.92,16.75-33.38,17.94-16.41,38.97-16.18,60.49-19.16-.48.47-.22,1.15.31,1.38-1.09,1.67-2.1,3.4-3.2,5.07-.39.59-2.91.97-1.29,3.91-1.79,3.5-2.65,6.81-4.18,10.36-.07.17-2.21.83-.75,3.07Z"/>
    <path class="cls-3" d="M1852.03,761.13c2.21-.31,8.46-3.63,12.72-3.74,16.03-.39,20.61,12.42,21.49,26.23,1.12,17.56-4.14,23.82-13.04,37.48-13.53,20.77-5.22,26.66-10.07,47.23-10.06,42.69-40.55,44.35-62.58,73.51-11.83,15.66-13.54,24.11-34.61,29.59-26.45,6.88-9.35-17.16-1.02-27,18.84-22.25,33.85-33.12,47.73-61.1,8.67-17.48,10.61-36.65,18.18-52.62,8.48-17.89,14.47-28.74,19.39-48.55,1.59-6.4,1.84-13.26,4.34-19.46-.63-.45-1.75-.01-2.22-.21-.53-.22-.79-.91-.31-1.38Z"/>
    <path class="cls-1" d="M1740.76,967.27c.53-.25,6.29,1.78,6.39,3.99.05,1.1-6.76,18.29-7.88,20.6-2.45,5.05-13.72,23.54-19.54,23.29-2.25-.09-6.39-4.48-5.37-6.09,3.47-5.49,24.16-40.75,26.4-41.8Z"/>
    <path class="cls-3" d="M1849.15,767.57c.95,1.44-.7,2.76-1.29,3.91-1.62-2.94.9-3.33,1.29-3.91Z"/>
    <path class="cls-3" d="M1843.68,781.84c.01,1.09-.41,2.05-.75,3.07-1.46-2.24.68-2.9.75-3.07Z"/>
  </g>
  <g>
    <path class="cls-2" d="M1905.74,886.69c30.59-9.01,67.18,11.95,86.94,34.44,3.71,4.22,11.06,13.97,1.94,16.28-5.8,1.47-6.6-5.12-9.44-8.26-32.85-36.45-89.9-51.68-114.69,2.28-13.46,29.3,5.92,38.74,12.6,63.91,7.85,29.6-5.93,69.5-34.55,83.14-28.53,13.59-68.48-1.84-91.15-21.79-3.84-3.38-13.68-13.23-6.21-17.22,5.73-3.07,14.9,9.5,19.51,13.26,43.62,35.58,104.01,23.16,103.35-40.82-.2-19.69-8.73-26.35-15.56-42.63-14.03-33.43,15.18-73.13,47.27-82.58Z"/>
    <path class="cls-2" d="M1845.38,987.23c15.11,14.18,15.87,37.93,1.68,53.06-14.19,15.12-37.94,15.89-53.06,1.71-15.11-14.18-15.87-37.93-1.68-53.06,14.19-15.12,37.94-15.89,53.06-1.71ZM1838.48,994.61c-11.06-10.38-28.45-9.82-38.83,1.25s-9.83,28.46,1.23,38.83c11.06,10.38,28.45,9.82,38.83-1.25,10.38-11.07,9.83-28.46-1.23-38.83Z"/>
    <path class="cls-2" d="M1947.36,925.42c15.11,14.17,15.86,37.91,1.68,53.03-14.18,15.11-37.92,15.88-53.03,1.71s-15.86-37.91-1.68-53.03c14.18-15.11,37.92-15.88,53.03-1.71ZM1940.6,932.81c-11.08-10.39-28.48-9.83-38.88,1.25-10.4,11.08-9.85,28.49,1.23,38.88,11.08,10.39,28.48,9.83,38.88-1.25,10.4-11.08,9.85-28.49-1.23-38.88Z"/>
    <path class="cls-2" d="M1831.83,1001.66c7.14,6.7,7.49,17.91.79,25.05s-17.92,7.5-25.05.81c-7.14-6.7-7.49-17.91-.79-25.05,6.7-7.14,17.92-7.5,25.05-.81ZM1809.28,1015.71c6.2,19.53,30.57,3.72,16.56-8.7-7.73-6.86-18.77,1.73-16.56,8.7Z"/>
    <path class="cls-2" d="M1920.68,934.9c3.62-.04,10.62,2.52,13.29,5.03,5.27,4.94,7.39,15.66,3.39,21.86-9.11,14.13-29.28,10.27-33.11-5.84-2.36-9.94,6.14-20.93,16.43-21.05ZM1920.25,942.81c-15.7,3.02-8.02,22.93,3.79,20.16,13.22-3.09,7.82-22.4-3.79-20.16Z"/>
  </g>
  <path class="cls-1" d="M25.04,793.02c.1,1.46-3.62,1.77-4.61,1.86-13.09,1.19-16.43-8.21-22.79-7.85-13.8.78-11.67,22.4-6.32,31.2,6.98,11.49,24.14,13.83,22.75,30.21-.13,1.48-1.61,7.24-2.31,8.2-.51.69-2.03.96-2.75,1.72-1.08,1.14-1.59,2.9-2.73,3.54-8.42,4.79-22.92-3.55-26.57,9.21-2.12,7.42,6.65,18.29,12.48,22.16,8.51,5.66,19.47,3.63,28.56,7.41,12.03,5,13.47,21.8,3.23,29.59-5.11,3.88-12.18,3.97-13.71,11.35-2,9.67,15.62,17.86,23.37,18.1,8.37.26,17.8-7.08,24.86-7.93,13.25-1.58,23.41,6.54,21.42,20.41-.94,6.53-7.79,9.51-7.9,16.06-.18,10.99,15.88,12,23.91,9.92,17.99-4.67,21.94-34.31,43.44-24.29,13.25,6.18,10.72,20.94,4.8,31.55-1.78,3.18-5.75,6.66-6.73,10.25-1.73,6.36-.84,13.74-3.42,20.55-3.7,9.76-21.86,24.74-30.69,14.12-4.27-5.13-1.35-9.27-1.33-14.16.03-7.66-6.8-15.67-14.48-16.48-20.32-2.15-20.21,19.89-37.59,25.35-8.49,2.66-24.13,2.75-24.93-8.89-.52-7.6,6.97-11.31,8-18.02,1.1-7.19-4.27-16.21-11.37-18.47-13.4-4.27-22.68,7.94-36.02,7.05-8.69-.58-25.09-8.66-22.26-19.23,1.68-6.25,9.79-7.2,13.98-10.71,9.47-7.93,7.39-25.33-4.52-29.2-10.39-3.38-20.21-1.24-29.63-8.34-6.99-5.27-16.29-19.73-7.11-26.95,5.68-4.46,8.94-1.2,14.48-1.41,11.53-.44,19.92-12.92,15.05-24.02-4.39-10-18.16-12.94-23.22-24.73-3.5-8.16-4.97-24.55,5.68-27.74,7.55-2.26,9.71,4.13,15.74,6.33,15.2,5.53,27.17-7.73,22.58-22.58-3.23-10.47-8.17-14.9-6.24-27.59.63-4.14,7.07-15.38,10.95-17.02,2.6-1.1,7.11-.82,9.72.24,5.16,2.08,6.07,10.6,9.75,14.23,3.2,3.16,10,5.79,14.49,5ZM-6.95,824.98c-.13-.11-2.11-.37-1.99.5,2.15,6.29,1.27,12.38-1.78,18.17-4.82,9.15-17.55,13.34-21.61,23.35-5.24,12.9,9.29,30.93,14.97,41.81,8.21,15.72,6.26,20.01,7.39,36.56,1,14.6,5.51,25.66,19.77,31.18,11.13,4.31,18.9,2.67,28.89,5.09,7.49,1.81,16.39,8.97,18.57,16.4,1.16,3.97.14,9.76,2.33,12.66,3.33,4.41,13.15.42,17.95.07,13.07-.96,24.61,2.68,34.7,10.95,1.22,1,6.49,7.66,7.38,7.92,7.66,2.2,8.04-14.82,2.79-20.8-7.69-8.77-18.9-3.54-28.91-3.08-21.85.99-25.95-1.84-37.28-19.65-1.96-3.09-3.03-7.83-5.34-10.64-7.54-9.14-16.87-1.55-26.32-1.57-18.63-.03-32.11-21.79-32.51-38.6-.25-10.4,7.24-15.59-1.51-26.37-2.24-2.77-6.63-4.32-9.49-7.5-9.06-10.09-12.46-32.8-1.95-42.96,5.94-5.74,12.12-1.49,16.48-11.49,1.65-3.79,1.96-8.32,1.4-12.41-.21-1.55-3.18-8.94-3.92-9.57Z"/>
</svg>